<svg id="Layer_1" data-name="Layer 1" xmlns="http://www.w3.org/2000/svg" viewBox="0 0 160.83 48"><defs><style>.cls-1,.cls-2{fill:#00a200;}.cls-1{fill-rule:evenodd;}</style></defs><g id="_07.A-user-with-inactive-gym-membership" data-name=" 07.A-user-with-inactive-gym-membership"><g id="nav-_-main-_-logged-in-_-xl" data-name="nav- -main- -logged-in- -xl"><g id="nav-_-primary" data-name="nav- -primary"><g id="logo"><path id="Fill-18" class="cls-1" d="M39.86,25.36H24.64V45.49l-.41.16a28.57,28.57,0,0,1-3.73,1.12,30.15,30.15,0,0,1-3.73-1.11l-.42-.17V25.36H1.19v-8H16.35v-16h.08c1.49-.1,2.71-.14,4.07-.14a40.62,40.62,0,0,1,4.06.14h.08v16H39.86ZM24.64.13h0C22.86,0,21.64,0,20.5,0s-2.4,0-4.15.14h0A57.15,57.15,0,0,0,0,3.56H0v22.8H0v.31c.18,12.14,10.4,17.86,16.34,20.1h0A27.25,27.25,0,0,0,20.5,48a28.47,28.47,0,0,0,4.14-1.22h0c5.94-2.24,16.17-8,16.35-20.1v-.31h0V3.56h0A56.84,56.84,0,0,0,24.64.13Z" transform="translate(0 -0.01)"/></g></g></g><path class="cls-2" d="M56.51,1.81c3.14,0,6.22.93,6.22,4.16A3.55,3.55,0,0,1,60.65,9.3h0a4.14,4.14,0,0,1,2.54,3.91c0,2.52-1.71,4.41-5.76,4.41H52V1.81ZM56,8.12h1c1.25,0,1.85-.65,1.85-1.64,0-1.2-1.06-1.55-2-1.55H56Zm0,6.42h1c1.2,0,2.26-.32,2.26-1.62,0-1.47-1.11-1.68-2.31-1.68h-1Z" transform="translate(0 -0.01)"/><path class="cls-2" d="M64.18,11.7a6.63,6.63,0,0,1,13.24,0,6.63,6.63,0,0,1-13.24,0Zm6.61,3a3,3,0,1,0-3-3,3,3,0,0,0,3,3Z" transform="translate(0 -0.01)"/><path class="cls-2" d="M87.56,1.56l3.6-.37V17.66L87.79,18V16.32h-.05A3.58,3.58,0,0,1,84.37,18a6.08,6.08,0,0,1-6.05-6.11v-.06a6.25,6.25,0,0,1,6-6.49h.05a4.74,4.74,0,0,1,3.19,1.2ZM84.86,14.8a3,3,0,0,0,2.89-3.1A2.9,2.9,0,0,0,82,11.22a3.84,3.84,0,0,0,0,.48A3,3,0,0,0,84.86,14.8Z" transform="translate(0 -0.01)"/><path class="cls-2" d="M97.74,12.44l2.87-7.07,3.46.88-7,15.66-3.76-.37,2.55-5.15L91.34,6.22l3.52-.85Z" transform="translate(0 -0.01)"/><path class="cls-2" d="M104.67,1.81h4.79c3.92,0,6.4,1.2,6.4,5.08,0,3.12-2.63,5-5.91,5h-1.39v5.55l-3.93.36Zm3.93,6.77h1.13c1.46,0,2.24-.62,2.24-1.71s-.78-1.71-2.24-1.71H108.6Z" transform="translate(0 -0.01)"/><path class="cls-2" d="M124.59,5.92l3.6-.37V17.48l-3.33.36V16h0a3.29,3.29,0,0,1-3.1,2c-3.26,0-4.34-2.08-4.34-5V5.92l3.6-.37v7.19c0,1.39.72,2.06,1.8,2.06s1.81-.67,1.81-2.06Z" transform="translate(0 -0.01)"/><path class="cls-2" d="M130.13,5.74l3.28-.37V7.26h0a2.78,2.78,0,0,1,2.7-1.89,3.32,3.32,0,0,1,2.75,1.43A4,4,0,0,1,142,5.37c3.61,0,4.18,2.75,4.18,5.61v6.5l-3.6.36V10.5c0-1.34-.51-1.9-1.32-1.9s-1.34.74-1.34,1.9v7l-3.6.36V10.5c0-1.16-.39-1.9-1.32-1.9-.69,0-1.34.74-1.34,1.9v7l-3.6.36Z" transform="translate(0 -0.01)"/><path class="cls-2" d="M151.54,21.54l-3.6.37V5.74l3.37-.37V7.54h.05A4,4,0,0,1,155,5.37c3.47,0,5.87,3.19,5.87,6.47A6.32,6.32,0,0,1,154.78,18a3.6,3.6,0,0,1-3.19-1.36h0Zm2.75-6.74a3.1,3.1,0,1,0-2.93-3.27v.17A3.08,3.08,0,0,0,154.29,14.8Z" transform="translate(0 -0.01)"/><path class="cls-2" d="M56.51,29.53c3.14,0,6.22.93,6.22,4.16A3.57,3.57,0,0,1,60.65,37h0a4.14,4.14,0,0,1,2.54,4c0,2.51-1.71,4.41-5.76,4.41H52V29.53ZM56,35.84h1c1.25,0,1.85-.65,1.85-1.64,0-1.2-1.06-1.55-2-1.55H56Zm0,6.42h1c1.2,0,2.26-.32,2.26-1.62,0-1.48-1.11-1.68-2.31-1.68h-1Z" transform="translate(0 -0.01)"/><path class="cls-2" d="M64.18,39.42a6.63,6.63,0,1,1,6.92,6.32h-.31a6.46,6.46,0,0,1-6.61-6.31Zm6.61,3a3,3,0,1,0-3-3,3,3,0,0,0,3,3Z" transform="translate(0 -0.01)"/><path class="cls-2" d="M78.29,39.42a6.63,6.63,0,1,1,6.92,6.32h-.35A6.46,6.46,0,0,1,78.29,39.42Zm6.61,3a3,3,0,1,0-3-3,3,3,0,0,0,3,3Z" transform="translate(0 -0.01)"/><path class="cls-2" d="M93.15,29.28l3.6-.37v9.38h0l4.15-5.39L104.67,34l-4.08,4.82,4.69,5.73-4.07,1L96.8,39.77h0v5.42l-3.6.37Z" transform="translate(0 -0.01)"/><path class="cls-2" d="M109.8,41.66a2.41,2.41,0,0,0,1.94.85,5.7,5.7,0,0,0,3.45-1.38l1.89,2.77a9.44,9.44,0,0,1-5.41,1.85,6.33,6.33,0,0,1-.16-12.66h0a6.66,6.66,0,0,1,5.94,3.65Zm3.33-5.08a2.11,2.11,0,0,0-1.6-.49,3,3,0,0,0-2.79,3v.41Z" transform="translate(0 -0.01)"/><path class="cls-2" d="M118.67,33.64l3.19-.37v2.27h0c.69-2.08,1.87-2.45,3.83-2.45l-1,3.6c-1.81,0-2.45.7-2.45,2.47v6l-3.61.37Z" transform="translate(0 -0.01)"/></g></svg>