<svg id="Layer_1" data-name="Layer 1" xmlns="http://www.w3.org/2000/svg" viewBox="0 0 160.83 48"><defs><style>.cls-1{fill:#fefefe;fill-rule:evenodd;}.cls-2{fill:#fff;}</style></defs><g id="_07.A-user-with-inactive-gym-membership" data-name="07.A-user-with-inactive-gym-membership"><g id="nav-_-main-_-logged-in-_-xl" data-name="nav-/-main-/-logged-in-/-xl"><g id="nav-_-primary" data-name="nav-/-primary"><g id="logo"><path id="Fill-18" class="cls-1" d="M40,25.35H24.78V45.48l-.41.16a28.26,28.26,0,0,1-3.73,1.12,28.82,28.82,0,0,1-3.73-1.11l-.42-.17V25.35H1.33v-8H16.49v-16h.08c1.49-.1,2.71-.14,4.07-.14s2.57,0,4.06.14h.08v16H40ZM24.78.12h0C23,0,21.78,0,20.64,0s-2.4,0-4.15.14h0A57.34,57.34,0,0,0,.14,3.55h0v22.8h0c0,.11,0,.21,0,.31.18,12.14,10.4,17.86,16.34,20.1h0A27.83,27.83,0,0,0,20.64,48a28.18,28.18,0,0,0,4.14-1.22h0c5.94-2.24,16.17-8,16.35-20.1,0-.1,0-.2,0-.31h0V3.55h0A57,57,0,0,0,24.78.12Z" transform="translate(-0.14 0.01)"/></g></g></g><path class="cls-2" d="M56.65,1.8c3.14,0,6.22.93,6.22,4.16a3.55,3.55,0,0,1-2.08,3.33v0a4.13,4.13,0,0,1,2.54,3.91c0,2.52-1.71,4.41-5.76,4.41h-5.4V1.8ZM56.1,8.11h1c1.25,0,1.85-.65,1.85-1.64,0-1.2-1.06-1.55-2-1.55H56.1Zm0,6.42h1c1.2,0,2.26-.32,2.26-1.62,0-1.47-1.11-1.68-2.31-1.68h-1Z" transform="translate(-0.14 0.01)"/><path class="cls-2" d="M64.32,11.69a6.63,6.63,0,0,1,13.24,0,6.63,6.63,0,0,1-13.24,0Zm6.61,3a3,3,0,1,0-3-3A3,3,0,0,0,70.93,14.67Z" transform="translate(-0.14 0.01)"/><path class="cls-2" d="M87.7,1.55l3.6-.37V17.65L87.93,18V16.31h-.05A3.57,3.57,0,0,1,84.51,18a6.08,6.08,0,0,1-6.05-6.17,6.25,6.25,0,0,1,6.05-6.49,4.72,4.72,0,0,1,3.19,1.2ZM85,14.79a3,3,0,0,0,2.89-3.1,2.9,2.9,0,1,0-5.78,0A3,3,0,0,0,85,14.79Z" transform="translate(-0.14 0.01)"/><path class="cls-2" d="M97.88,12.43l2.87-7.07,3.46.88-7,15.66-3.76-.37L96,16.38,91.48,6.21,95,5.36Z" transform="translate(-0.14 0.01)"/><path class="cls-2" d="M104.81,1.8h4.79C113.52,1.8,116,3,116,6.88c0,3.12-2.63,5-5.91,5h-1.39v5.55l-3.93.36Zm3.93,6.77h1.13c1.46,0,2.24-.62,2.24-1.71s-.78-1.71-2.24-1.71h-1.13Z" transform="translate(-0.14 0.01)"/><path class="cls-2" d="M124.73,5.91l3.6-.37V17.47l-3.33.36V16h0a3.3,3.3,0,0,1-3.1,2c-3.26,0-4.34-2.08-4.34-5V5.91l3.6-.37v7.19c0,1.39.72,2.06,1.8,2.06s1.81-.67,1.81-2.06Z" transform="translate(-0.14 0.01)"/><path class="cls-2" d="M130.27,5.73l3.28-.37V7.25h0a2.78,2.78,0,0,1,2.7-1.89,3.33,3.33,0,0,1,2.75,1.43,4,4,0,0,1,3.16-1.43c3.61,0,4.18,2.75,4.18,5.61v6.5l-3.6.36V10.49c0-1.34-.51-1.9-1.32-1.9s-1.34.74-1.34,1.9v7l-3.6.36V10.49c0-1.16-.39-1.9-1.32-1.9-.69,0-1.34.74-1.34,1.9v7l-3.6.36Z" transform="translate(-0.14 0.01)"/><path class="cls-2" d="M151.68,21.53l-3.6.37V5.73l3.37-.37V7.53h.05a4,4,0,0,1,3.6-2.17c3.47,0,5.87,3.19,5.87,6.47A6.32,6.32,0,0,1,154.92,18a3.61,3.61,0,0,1-3.19-1.36h0Zm2.75-6.74a3.1,3.1,0,1,0-2.93-3.1A3.08,3.08,0,0,0,154.43,14.79Z" transform="translate(-0.14 0.01)"/><path class="cls-2" d="M56.65,29.52c3.14,0,6.22.93,6.22,4.16A3.56,3.56,0,0,1,60.79,37v0A4.13,4.13,0,0,1,63.33,41c0,2.51-1.71,4.41-5.76,4.41h-5.4V29.52Zm-.55,6.31h1c1.25,0,1.85-.65,1.85-1.64,0-1.2-1.06-1.55-2-1.55H56.1Zm0,6.42h1c1.2,0,2.26-.32,2.26-1.62,0-1.48-1.11-1.68-2.31-1.68h-1Z" transform="translate(-0.14 0.01)"/><path class="cls-2" d="M64.32,39.41a6.63,6.63,0,1,1,6.61,6.33A6.46,6.46,0,0,1,64.32,39.41Zm6.61,3a3,3,0,1,0-3-3A3,3,0,0,0,70.93,42.39Z" transform="translate(-0.14 0.01)"/><path class="cls-2" d="M78.43,39.41A6.63,6.63,0,1,1,85,45.74,6.46,6.46,0,0,1,78.43,39.41Zm6.61,3a3,3,0,1,0-3-3A3,3,0,0,0,85,42.39Z" transform="translate(-0.14 0.01)"/><path class="cls-2" d="M93.29,29.27l3.6-.37v9.38h0l4.15-5.39L104.81,34l-4.08,4.82,4.69,5.73-4.07,1-4.41-5.79h0v5.42l-3.6.37Z" transform="translate(-0.14 0.01)"/><path class="cls-2" d="M109.94,41.65a2.4,2.4,0,0,0,1.94.85,5.69,5.69,0,0,0,3.45-1.38l1.89,2.77a9.38,9.38,0,0,1-5.41,1.85,6.33,6.33,0,0,1-.16-12.66,6.68,6.68,0,0,1,5.94,3.65Zm3.33-5.08a2.11,2.11,0,0,0-1.6-.49,3,3,0,0,0-2.79,3v.41Z" transform="translate(-0.14 0.01)"/><path class="cls-2" d="M118.81,33.63l3.19-.37v2.27h0c.69-2.08,1.87-2.45,3.83-2.45l-1,3.6c-1.81,0-2.45.7-2.45,2.47v6l-3.61.37Z" transform="translate(-0.14 0.01)"/></g></svg>